<svg width="229" height="216" viewBox="0 0 229 216" fill="none" xmlns="http://www.w3.org/2000/svg">
<path d="M45.4375 154.438C36.7292 154.438 29.0208 153.125 22.3125 150.5C15.6042 147.875 10.3542 143.771 6.5625 138.188C2.77083 132.604 0.875 125.396 0.875 116.562V107.062L35.5625 102.312V111.938C35.5625 115.979 36.3958 118.979 38.0625 120.938C39.7708 122.854 41.7083 123.812 43.875 123.812C46.125 123.812 48.1667 122.729 50 120.562C51.8333 118.354 52.75 115.354 52.75 111.562V52.1875H92.5625V100.438C92.5625 110.688 91.3542 119.271 88.9375 126.188C86.5625 133.104 83.2292 138.646 78.9375 142.812C74.6458 146.938 69.6458 149.917 63.9375 151.75C58.2292 153.542 52.0625 154.438 45.4375 154.438ZM103.062 74.3125H138.062L146.5 100.188C149.583 95.9792 152.792 91.6667 156.125 87.25C159.5 82.7917 162.688 78.4792 165.688 74.3125H169.688L187.562 99.625C188.854 95.5417 190.229 91.3333 191.688 87C193.188 82.625 194.583 78.3958 195.875 74.3125H224.312L197.938 152.5H187.562L165.188 120.125L141.25 152.5H130.875L103.062 74.3125Z" fill="white"/>
</svg>
