<svg width="121" height="75" viewBox="0 0 121 75" fill="none" xmlns="http://www.w3.org/2000/svg">
<path d="M21.5 44C0.369793 44 0 45.7594 0 59.5C0 73.2406 0.369793 75 21.5 75C42.6302 75 43 73.2406 43 59.5C43 45.7594 42.6302 44 21.5 44ZM28.3908 60.1723L18.7373 64.3916C17.8923 64.7579 17.2 64.3473 17.2 63.4736V55.5264C17.2 54.6547 17.8923 54.2421 18.7373 54.6084L28.3908 58.8277C29.2357 59.1981 29.2357 59.8019 28.3908 60.1723Z" fill="white"/>
<path d="M56.488 49.904L59.632 49.688L59.872 59.24L62.704 49.688H65.992L61.288 62H57.688L57.616 53.048L54.688 62H50.944L50.344 49.688H53.632L53.344 59.312L56.488 49.904ZM76.6874 61.592C75.7914 62.04 74.8554 62.264 73.8794 62.264C72.9194 62.264 72.2714 61.896 71.9354 61.16C70.8954 61.928 69.6634 62.312 68.2394 62.312C67.1514 62.312 66.3434 62 65.8154 61.376C65.3994 60.896 65.1914 60.288 65.1914 59.552C65.1914 58.672 65.3674 57.952 65.7194 57.392C66.0714 56.832 66.4154 56.432 66.7514 56.192C67.1034 55.936 67.4954 55.728 67.9274 55.568C68.6314 55.312 69.4234 55.184 70.3034 55.184C71.1834 55.184 71.9114 55.208 72.4874 55.256L72.6794 54.08C72.7114 53.824 72.7274 53.536 72.7274 53.216C72.7274 52.88 72.5994 52.616 72.3434 52.424C72.1034 52.216 71.5754 52.112 70.7594 52.112C69.9594 52.112 69.0234 52.28 67.9514 52.616L67.5914 50.504C68.2474 50.152 69.0154 49.888 69.8954 49.712C70.7754 49.52 71.5194 49.424 72.1274 49.424C73.7594 49.424 74.8714 49.776 75.4634 50.48C75.8634 50.96 76.0634 51.68 76.0634 52.64C76.0634 53.056 76.0234 53.52 75.9434 54.032L75.1514 59.072C75.1354 59.152 75.1274 59.224 75.1274 59.288C75.1274 59.592 75.2954 59.744 75.6314 59.744C75.8554 59.744 76.1594 59.696 76.5434 59.6L76.6874 61.592ZM72.2234 56.936C71.7754 56.904 71.3834 56.888 71.0474 56.888C69.2714 56.888 68.3834 57.544 68.3834 58.856C68.3834 59.672 68.8394 60.08 69.7514 60.08C70.4394 60.08 71.1274 59.872 71.8154 59.456L72.2234 56.936ZM82.5942 58.352C82.5622 58.544 82.5462 58.728 82.5462 58.904C82.5462 59.08 82.5862 59.248 82.6662 59.408C82.7622 59.568 83.0422 59.648 83.5062 59.648C83.9702 59.648 84.4982 59.576 85.0902 59.432L85.2342 61.808C84.4022 62.144 83.5222 62.312 82.5942 62.312C81.6822 62.312 80.9862 62.216 80.5062 62.024C80.0422 61.848 79.7062 61.648 79.4982 61.424C79.1942 61.104 79.0422 60.496 79.0422 59.6C79.0422 59.296 79.1062 58.776 79.2342 58.04L80.1702 52.016L78.0342 51.872L78.3462 49.904L80.6262 49.712L81.0582 46.904L84.4662 46.616L83.9862 49.688H87.4902L86.9142 52.016H83.5782L82.5942 58.352ZM92.0853 62.312C90.4373 62.312 89.1573 61.776 88.2453 60.704C87.5733 59.936 87.2373 58.872 87.2373 57.512C87.2373 57.016 87.2853 56.48 87.3813 55.904C87.7173 53.744 88.5013 52.136 89.7333 51.08C90.9813 50.008 92.4453 49.472 94.1253 49.472C95.1173 49.472 96.2213 49.656 97.4373 50.024L96.4053 52.448C95.4613 52.224 94.6933 52.112 94.1013 52.112C93.1573 52.112 92.3813 52.4 91.7733 52.976C91.1813 53.536 90.7813 54.52 90.5733 55.928C90.4933 56.424 90.4533 56.968 90.4533 57.56C90.4533 58.136 90.6053 58.608 90.9093 58.976C91.3733 59.536 92.1013 59.816 93.0933 59.816C93.6213 59.816 94.4133 59.736 95.4693 59.576L95.5413 61.76C94.2293 62.128 93.0773 62.312 92.0853 62.312ZM106.283 49.472C107.243 49.472 107.979 49.656 108.491 50.024C109.003 50.392 109.291 50.88 109.355 51.488C109.387 51.728 109.403 52.024 109.403 52.376C109.403 52.712 109.371 53.112 109.307 53.576L107.987 62H104.483L105.707 54.176C105.771 53.696 105.803 53.336 105.803 53.096C105.803 52.856 105.699 52.648 105.491 52.472C105.299 52.296 104.979 52.208 104.531 52.208C103.635 52.208 102.827 52.504 102.107 53.096L100.715 62H97.3549L99.9949 45.272L103.379 45.056L102.467 50.792C103.747 49.912 105.019 49.472 106.283 49.472Z" fill="white"/>
<path d="M1.92 31.984C2.24 32.208 2.912 32.528 3.936 32.944C4.992 33.328 6.224 33.52 7.632 33.52C8.752 33.52 9.664 33.328 10.368 32.944C11.104 32.56 11.648 31.984 12 31.216C12.384 30.416 12.64 29.392 12.768 28.144C12.896 26.864 12.96 25.328 12.96 23.536V5.92H20.832V23.248C20.832 25.808 20.688 28.144 20.4 30.256C20.112 32.368 19.52 34.208 18.624 35.776C17.76 37.312 16.448 38.496 14.688 39.328C12.928 40.128 10.576 40.528 7.632 40.528C6.128 40.528 4.768 40.352 3.552 40C2.336 39.648 1.216 39.12 0.192 38.416L1.92 31.984ZM41.6228 40.288C38.9028 40.288 36.5828 39.84 34.6628 38.944C32.7428 38.016 31.1748 36.768 29.9588 35.2C28.7748 33.6 27.8948 31.792 27.3188 29.776C26.7748 27.728 26.5028 25.584 26.5028 23.344V5.92H34.3748V23.344C34.3748 24.624 34.5028 25.872 34.7588 27.088C35.0148 28.272 35.4308 29.328 36.0068 30.256C36.5828 31.184 37.3188 31.92 38.2148 32.464C39.1428 33.008 40.2788 33.28 41.6228 33.28C42.9988 33.28 44.1508 33.008 45.0788 32.464C46.0068 31.888 46.7428 31.136 47.2868 30.208C47.8308 29.248 48.2308 28.176 48.4868 26.992C48.7428 25.808 48.8708 24.592 48.8708 23.344V5.92H56.7428V23.344C56.7428 25.712 56.4388 27.92 55.8308 29.968C55.2548 32.016 54.3588 33.824 53.1428 35.392C51.9268 36.928 50.3588 38.128 48.4388 38.992C46.5508 39.856 44.2788 40.288 41.6228 40.288ZM83.2901 15.904C83.1941 15.744 82.8581 15.504 82.2821 15.184C81.7061 14.832 80.9861 14.464 80.1221 14.08C79.2581 13.696 78.3141 13.36 77.2901 13.072C76.2661 12.784 75.2421 12.64 74.2181 12.64C72.8741 12.64 71.8341 12.88 71.0981 13.36C70.3621 13.808 69.9941 14.512 69.9941 15.472C69.9941 16.24 70.2661 16.848 70.8101 17.296C71.3861 17.744 72.2021 18.144 73.2581 18.496C74.3141 18.816 75.6101 19.2 77.1461 19.648C79.3221 20.224 81.2101 20.928 82.8101 21.76C84.4101 22.56 85.6261 23.6 86.4581 24.88C87.3221 26.16 87.7541 27.856 87.7541 29.968C87.7541 31.888 87.4021 33.52 86.6981 34.864C85.9941 36.176 85.0341 37.248 83.8181 38.08C82.6341 38.88 81.2741 39.472 79.7381 39.856C78.2021 40.208 76.6181 40.384 74.9861 40.384C73.3221 40.384 71.6101 40.224 69.8501 39.904C68.1221 39.552 66.4581 39.072 64.8581 38.464C63.2581 37.824 61.7861 37.056 60.4421 36.16L63.8981 29.296C64.0261 29.456 64.4421 29.76 65.1461 30.208C65.8501 30.624 66.7141 31.072 67.7381 31.552C68.7941 32 69.9621 32.4 71.2421 32.752C72.5221 33.104 73.8181 33.28 75.1301 33.28C76.5381 33.28 77.5781 33.056 78.2501 32.608C78.9541 32.16 79.3061 31.536 79.3061 30.736C79.3061 29.872 78.9381 29.2 78.2021 28.72C77.4981 28.24 76.5221 27.808 75.2741 27.424C74.0581 27.04 72.6501 26.608 71.0501 26.128C68.9701 25.488 67.2421 24.768 65.8661 23.968C64.5221 23.168 63.5141 22.192 62.8421 21.04C62.2021 19.888 61.8821 18.448 61.8821 16.72C61.8821 14.32 62.4421 12.304 63.5621 10.672C64.7141 9.008 66.2501 7.76 68.1701 6.928C70.0901 6.064 72.1861 5.632 74.4581 5.632C76.0581 5.632 77.5941 5.824 79.0661 6.208C80.5701 6.592 81.9621 7.072 83.2421 7.648C84.5541 8.224 85.7221 8.8 86.7461 9.376L83.2901 15.904ZM118.341 12.832H107.973V40H100.101V12.832H89.6854V5.92H118.341V12.832Z" fill="white"/>
</svg>
